<svg width="36" height="36" viewBox="0 0 36 36" fill="none" xmlns="http://www.w3.org/2000/svg">
<g clip-path="url(#clip0_2943_11383)">
<path fill-rule="evenodd" clip-rule="evenodd" d="M22.1338 35.5796C29.5495 33.7725 35.9992 27.4318 35.9992 18.8419C35.9992 17.3963 34.8527 16.25 33.4072 16.25H21.2438C19.7981 16.25 18.6016 17.3963 18.6016 18.8419C18.6016 20.3869 19.7981 21.5331 21.2438 21.5331H30.2664C29.4593 26.1741 24.9885 29.4234 20.8852 30.5489C20.7896 30.568 20.6964 30.5926 20.6049 30.6221L20.5779 30.6291C20.5763 30.6292 20.5746 30.6306 20.5729 30.6326C19.5458 30.9775 18.8059 31.9482 18.8059 33.0912C18.8059 34.5237 19.9674 35.6849 21.3999 35.6849C21.6549 35.6849 21.9013 35.6481 22.1338 35.5796V35.5796Z" fill="#0F5156"/>
<path fill-rule="evenodd" clip-rule="evenodd" d="M0.00882368 17.5157C4.20984 17.9131 8.46225 20.0068 11.677 23.6556C14.8918 27.3049 16.4327 31.7864 16.297 36.0033C12.096 35.6057 7.72611 33.5873 4.51137 29.9387C1.29662 26.2897 -0.12675 21.7323 0.00882368 17.5156V17.5157Z" fill="#00CD78"/>
<path fill-rule="evenodd" clip-rule="evenodd" d="M6.71831 12.76C8.42997 8.32084 12.3727 5.37513 17.5289 5.14882C20.766 5.00707 23.603 5.98015 25.7776 7.78054C26.7587 8.53566 27.7766 8.99004 28.6732 8.95061C29.221 8.92659 29.7125 8.75534 30.1454 8.38714C31.3511 7.43624 31.2484 5.0961 29.2384 3.63775C26.087 1.18185 21.9853 -0.184904 17.3039 0.0202102C10.2988 0.327678 3.87085 4.22977 1.46208 11.0144C1.28966 11.3977 1.20175 11.8264 1.22148 12.275C1.28882 13.8103 2.58821 15.0003 4.12375 14.9329C5.40851 14.8767 6.4513 13.9579 6.71831 12.76V12.76Z" fill="#0F5156"/>
</g>
<defs>
<clipPath id="clip0_2943_11383">
<rect width="36" height="36" fill="white"/>
</clipPath>
</defs>
</svg>
