<svg width="40" height="40" viewBox="0 0 40 40" fill="none" xmlns="http://www.w3.org/2000/svg">
<path d="M1.71934 10.835C2.12869 7.54559 4.93438 5 8.33464 5H31.668C35.0682 5 37.8739 7.54559 38.2833 10.835C38.3401 11.2917 37.9615 11.6667 37.5013 11.6667L2.5013 11.6667C2.04106 11.6667 1.66251 11.2917 1.71934 10.835Z" fill="#0F5156"/>
<path fill-rule="evenodd" clip-rule="evenodd" d="M37.5013 15C37.9615 15 38.3346 15.3731 38.3346 15.8333V23.5897C38.3346 23.9609 37.8858 24.1468 37.6233 23.8843L35.2035 21.4645C33.2509 19.5118 30.0851 19.5118 28.1324 21.4645L23.1324 26.4645C21.1798 28.4171 21.1798 31.5829 23.1324 33.5355C23.389 33.7921 23.6664 34.0149 23.9593 34.204C24.0865 34.2861 24.168 34.4248 24.168 34.5761C24.168 34.8102 23.9782 35 23.7441 35H8.33464C4.65274 35 1.66797 32.0152 1.66797 28.3333V15.8333C1.66797 15.3731 2.04106 15 2.5013 15H37.5013ZM8.33464 21.6667C8.33464 20.7462 9.08083 20 10.0013 20H15.0013C15.9218 20 16.668 20.7462 16.668 21.6667C16.668 22.5871 15.9218 23.3333 15.0013 23.3333H10.0013C9.08083 23.3333 8.33464 22.5871 8.33464 21.6667Z" fill="#0F5156"/>
<path d="M37.8465 28.8215L32.8465 23.8215C32.1956 23.1706 31.1403 23.1706 30.4895 23.8215L25.4895 28.8215C24.8386 29.4724 24.8386 30.5276 25.4895 31.1785C26.1403 31.8294 27.1956 31.8294 27.8465 31.1785L30.0013 29.0237V35C30.0013 35.9205 30.7475 36.6667 31.668 36.6667C32.5884 36.6667 33.3346 35.9205 33.3346 35V29.0237L35.4895 31.1785C36.1403 31.8294 37.1956 31.8294 37.8465 31.1785C38.4974 30.5276 38.4974 29.4724 37.8465 28.8215Z" fill="#0F5156"/>
</svg>
