<svg width="51" height="51" viewBox="0 0 51 51" fill="none" xmlns="http://www.w3.org/2000/svg">
<path d="M20.856 15.9375C20.2203 15.9375 19.7262 15.3826 19.8107 14.7526C20.2253 11.6618 20.811 8.89739 21.5206 6.59104C21.9992 5.03579 22.5188 3.73964 23.0509 2.71183C23.2103 2.40389 23.5202 2.2051 23.8662 2.18121C24.4059 2.14394 24.9508 2.125 25.5 2.125C26.0492 2.125 26.5941 2.14394 27.1338 2.18121C27.4798 2.2051 27.7897 2.40389 27.9491 2.71183C28.4812 3.73964 29.0008 5.03579 29.4794 6.59104C30.189 8.89739 30.7747 11.6618 31.1893 14.7526C31.2738 15.3826 30.7797 15.9375 30.144 15.9375H20.856Z" fill="#0F5156"/>
<path d="M14.4331 15.9375C14.9748 15.9375 15.4289 15.5296 15.495 14.992C15.9398 11.3759 16.6097 8.09998 17.4586 5.34118C17.7127 4.51531 16.9345 3.72693 16.1428 4.07315C11.3279 6.17882 7.35925 9.85991 4.88868 14.4647C4.52436 15.1437 5.0351 15.9375 5.80569 15.9375H14.4331Z" fill="#0F5156"/>
<path d="M2.55528 21.0128C2.64959 20.5277 3.08108 20.1875 3.57522 20.1875H13.9019C14.5131 20.1875 14.9977 20.7019 14.9698 21.3124C14.9072 22.6815 14.875 24.0799 14.875 25.4999C14.875 26.9201 14.9072 28.3184 14.9698 29.6876C14.9977 30.2982 14.5131 30.8125 13.9019 30.8125H3.57522C3.08108 30.8125 2.64959 30.4723 2.55527 29.9872C2.27292 28.535 2.125 27.0348 2.125 25.5C2.125 23.9652 2.27292 22.465 2.55528 21.0128Z" fill="#0F5156"/>
<path d="M19.2306 21.1851C19.2583 20.6243 19.7236 20.1875 20.2851 20.1875H30.7149C31.2764 20.1875 31.7417 20.6243 31.7694 21.1851C31.8388 22.5869 31.875 24.0281 31.875 25.4999C31.875 26.9718 31.8388 28.4131 31.7694 29.8149C31.7416 30.3757 31.2764 30.8125 30.7149 30.8125H20.2851C19.7236 30.8125 19.2584 30.3757 19.2306 29.8149C19.1612 28.4131 19.125 26.9718 19.125 25.4999C19.125 24.0281 19.1612 22.5869 19.2306 21.1851Z" fill="#0F5156"/>
<path d="M37.0981 20.1875C36.4869 20.1875 36.0024 20.7019 36.0302 21.3124C36.0928 22.6815 36.125 24.0799 36.125 25.4999C36.125 26.9201 36.0928 28.3184 36.0302 29.6876C36.0023 30.2982 36.4869 30.8125 37.0981 30.8125H47.4248C47.9189 30.8125 48.3504 30.4723 48.4447 29.9872C48.7271 28.535 48.875 27.0348 48.875 25.5C48.875 23.9652 48.7271 22.465 48.4447 21.0128C48.3504 20.5277 47.9189 20.1875 47.4248 20.1875H37.0981Z" fill="#0F5156"/>
<path d="M45.1943 15.9375C45.9649 15.9375 46.4756 15.1437 46.1113 14.4647C43.6408 9.85991 39.6721 6.17883 34.8572 4.07315C34.0655 3.72693 33.2873 4.51531 33.5414 5.34118C34.3903 8.09998 35.0602 11.3759 35.505 14.992C35.5711 15.5296 36.0252 15.9375 36.5669 15.9375H45.1943Z" fill="#0F5156"/>
<path d="M21.5206 44.4088C20.811 42.1025 20.2253 39.3381 19.8107 36.2474C19.7262 35.6174 20.2203 35.0625 20.856 35.0625H30.144C30.7797 35.0625 31.2738 35.6174 31.1893 36.2474C30.7747 39.3381 30.189 42.1025 29.4794 44.4088C29.0008 45.9642 28.4812 47.2604 27.9491 48.2882C27.7896 48.5961 27.4797 48.7949 27.1338 48.8188C26.594 48.8561 26.0492 48.875 25.5 48.875C24.9508 48.875 24.406 48.8561 23.8662 48.8188C23.5203 48.7949 23.2104 48.5961 23.051 48.2882C22.5188 47.2604 21.9992 45.9642 21.5206 44.4088Z" fill="#0F5156"/>
<path d="M15.4951 36.008C15.4289 35.4704 14.9748 35.0625 14.4331 35.0625H5.80568C5.0351 35.0625 4.52437 35.8563 4.88868 36.5353C7.35924 41.1401 11.3278 44.8211 16.1427 46.9268C16.9345 47.2731 17.7127 46.4846 17.4586 45.6587C16.6097 42.8999 15.9398 39.624 15.4951 36.008Z" fill="#0F5156"/>
<path d="M46.1113 36.5353C46.4756 35.8563 45.9649 35.0625 45.1943 35.0625H36.5669C36.0252 35.0625 35.5711 35.4704 35.505 36.008C35.0602 39.624 34.3903 42.8999 33.5414 45.6587C33.2873 46.4846 34.0655 47.2731 34.8573 46.9268C39.6722 44.8211 43.6408 41.1401 46.1113 36.5353Z" fill="#0F5156"/>
</svg>
