<svg width="32" height="32" viewBox="0 0 32 32" fill="none" xmlns="http://www.w3.org/2000/svg">
<path d="M1.43329 13.9768C0.663546 13.8731 0.118033 13.1675 0.28945 12.4154C0.941013 9.55667 2.37702 6.92209 4.4507 4.81044C6.85273 2.36443 9.98311 0.749655 13.3801 0.20433C16.7768 -0.340996 20.2604 0.212027 23.3167 1.78181C25.955 3.13697 28.1544 5.18799 29.6805 7.69715C30.082 8.35729 29.7884 9.19759 29.0908 9.53684L27.7602 10.1838C27.0626 10.5231 26.2268 10.2309 25.8045 9.5839C24.6983 7.89014 23.1634 6.50308 21.3431 5.56818C19.105 4.41848 16.5536 4.01346 14.0656 4.41286C11.5777 4.81226 9.28503 5.99491 7.52577 7.78637C6.09522 9.24311 5.07902 11.0397 4.56702 12.9932C4.37144 13.7395 3.67107 14.2782 2.90133 14.1745L1.43329 13.9768Z" fill="#0F5156"/>
<path d="M19.7059 29.9757C19.9057 30.7209 20.6789 31.1701 21.4092 30.9073C24.6178 29.7529 27.3851 27.6075 29.2923 24.7686C31.2337 21.8787 32.1746 18.2753 31.9745 14.7933C31.9344 14.0957 31.3321 13.5791 30.6282 13.5791H29.6211H27.5163C27.8999 16.3947 27.3074 20.0394 25.7195 22.4033C24.3928 24.378 22.4979 25.8946 20.2977 26.7663C19.5762 27.0522 19.1251 27.8093 19.3248 28.5545L19.7059 29.9757Z" fill="#0F5156"/>
<path d="M15.9453 14.9753C15.9453 14.2042 16.5747 13.5791 17.3518 13.5791H27.7839V17.7578H17.3518C16.5747 17.7578 15.9453 17.1326 15.9453 16.3615V14.9753Z" fill="#0F5156"/>
<path fill-rule="evenodd" clip-rule="evenodd" d="M0 17.8982C0.0527791 17.8977 0.105593 17.8975 0.158477 17.8975C8.39859 17.8975 15.1882 24.0625 16.102 31.9997C16.0493 32.0002 15.9965 32.0004 15.9434 32.0004C7.70346 32.0004 0.913876 25.8354 0 17.8982Z" fill="#00CD78"/>
</svg>
