<svg width="40" height="40" viewBox="0 0 40 40" fill="none" xmlns="http://www.w3.org/2000/svg">
<path d="M8.49479 0.833008C4.26061 0.833008 0.828125 4.26549 0.828125 8.49968V12.333C0.828125 13.3916 1.68625 14.2497 2.74479 14.2497C3.80334 14.2497 4.66146 13.3916 4.66146 12.333V8.49968C4.66146 6.38258 6.3777 4.66634 8.49479 4.66634H12.3281C13.3867 4.66634 14.2448 3.80822 14.2448 2.74967C14.2448 1.69113 13.3867 0.833008 12.3281 0.833008H8.49479Z" fill="#0F5156"/>
<path d="M27.6615 0.833008C26.6029 0.833008 25.7448 1.69113 25.7448 2.74967C25.7448 3.80822 26.6029 4.66634 27.6615 4.66634H31.4948C33.6119 4.66634 35.3281 6.38258 35.3281 8.49967V12.333C35.3281 13.3916 36.1862 14.2497 37.2448 14.2497C38.3033 14.2497 39.1615 13.3916 39.1615 12.333V8.49967C39.1615 4.26549 35.729 0.833008 31.4948 0.833008H27.6615Z" fill="#0F5156"/>
<path d="M4.66146 27.6663C4.66146 26.6078 3.80334 25.7497 2.74479 25.7497C1.68625 25.7497 0.828125 26.6078 0.828125 27.6663V31.4997C0.828125 35.7339 4.26061 39.1663 8.49479 39.1663H12.3281C13.3867 39.1663 14.2448 38.3082 14.2448 37.2497C14.2448 36.1911 13.3867 35.333 12.3281 35.333H8.49479C6.3777 35.333 4.66146 33.6168 4.66146 31.4997V27.6663Z" fill="#0F5156"/>
<path d="M39.1615 27.6663C39.1615 26.6078 38.3033 25.7497 37.2448 25.7497C36.1862 25.7497 35.3281 26.6078 35.3281 27.6663V31.4997C35.3281 33.6168 33.6119 35.333 31.4948 35.333H27.6615C26.6029 35.333 25.7448 36.1911 25.7448 37.2497C25.7448 38.3082 26.6029 39.1663 27.6615 39.1663H31.4948C35.729 39.1663 39.1615 35.7339 39.1615 31.4997V27.6663Z" fill="#0F5156"/>
<path d="M8.49479 10.4163C8.49479 9.3578 9.35291 8.49967 10.4115 8.49967H16.1615C17.22 8.49967 18.0781 9.3578 18.0781 10.4163V16.1663C18.0781 17.2249 17.22 18.083 16.1615 18.083H10.4115C9.35291 18.083 8.49479 17.2249 8.49479 16.1663V10.4163Z" fill="#0F5156"/>
<path d="M21.9115 10.4163C21.9115 9.3578 22.7696 8.49967 23.8281 8.49967H29.5781C30.6367 8.49967 31.4948 9.3578 31.4948 10.4163V16.1663C31.4948 17.2249 30.6367 18.083 29.5781 18.083C28.5196 18.083 27.6615 17.2249 27.6615 16.1663V12.333H23.8281C22.7696 12.333 21.9115 11.4749 21.9115 10.4163Z" fill="#0F5156"/>
<path d="M25.7448 16.1472C25.7448 15.0886 24.8867 14.2305 23.8281 14.2305C22.7696 14.2305 21.9115 15.0886 21.9115 16.1472V16.1663C21.9115 17.2249 22.7696 18.083 23.8281 18.083C24.8867 18.083 25.7448 17.2249 25.7448 16.1663V16.1472Z" fill="#0F5156"/>
<path d="M8.49479 23.833C8.49479 22.7745 9.35291 21.9163 10.4115 21.9163H16.1615C17.22 21.9163 18.0781 22.7745 18.0781 23.833C18.0781 24.8916 17.22 25.7497 16.1615 25.7497H12.3281V26.708C12.3281 27.7666 11.47 28.6247 10.4115 28.6247C9.35291 28.6247 8.49479 27.7666 8.49479 26.708V23.833Z" fill="#0F5156"/>
<path d="M23.8281 21.9163C22.7696 21.9163 21.9115 22.7745 21.9115 23.833V29.583C21.9115 30.6416 22.7696 31.4997 23.8281 31.4997H29.5781C30.6367 31.4997 31.4948 30.6416 31.4948 29.583V23.833C31.4948 22.7745 30.6367 21.9163 29.5781 21.9163H23.8281Z" fill="#0F5156"/>
<path d="M14.2256 29.583C14.2256 28.5245 15.0837 27.6663 16.1423 27.6663H16.1615C17.22 27.6663 18.0781 28.5245 18.0781 29.583C18.0781 30.6416 17.22 31.4997 16.1615 31.4997H16.1423C15.0837 31.4997 14.2256 30.6416 14.2256 29.583Z" fill="#0F5156"/>
</svg>
